<svg preserveAspectRatio="none" overflow="visible" style="display: block;" width="14" height="14" viewBox="0 0 14 14" fill="none" xmlns="http://www.w3.org/2000/svg">
<g id="TNKR GitHub Octocat mark" clip-path="url(#clip0_0_21)">
<path id="Vector" d="M5.92028 9.912C4.11515 9.69325 2.84378 8.39475 2.84378 6.713C2.84378 6.02962 3.08965 5.29113 3.50003 4.7985C3.3224 4.34788 3.34953 3.39062 3.55515 2.99425C4.10203 2.926 4.83965 3.213 5.27715 3.60938C5.7969 3.44575 6.34378 3.3635 7.01403 3.3635C7.6834 3.3635 8.23028 3.44575 8.7229 3.59538C9.1464 3.213 9.8989 2.926 10.4458 2.99425C10.6365 3.3635 10.6645 4.31987 10.486 4.78537C10.9235 5.30425 11.1563 6.00162 11.1563 6.713C11.1563 8.39475 9.8849 9.66613 8.05265 9.898C8.51728 10.199 8.8314 10.8552 8.8314 11.6077V13.0296C8.8314 13.4391 9.17353 13.6719 9.5839 13.5082C12.0584 12.5641 14 10.0887 14 7.02625C14 3.15875 10.8553 0 6.98603 0C3.11765 0 2.66715e-05 3.15875 2.66715e-05 7.02713C-0.00391144 8.44334 0.428342 9.82641 1.23803 10.9883C2.04772 12.1503 3.19556 13.0347 4.52553 13.5214C4.89478 13.6579 5.25003 13.412 5.25003 13.0428V11.949C5.0584 12.0313 4.81253 12.0855 4.59378 12.0855C3.69165 12.0855 3.15878 11.5938 2.77553 10.6776C2.62503 10.3084 2.46053 10.0896 2.1464 10.0485C1.98278 10.0354 1.92765 9.96712 1.92765 9.88487C1.92765 9.72037 2.20153 9.59787 2.47453 9.59787C2.8709 9.59787 3.21303 9.84375 3.56828 10.3504C3.84215 10.7459 4.12828 10.9235 4.4704 10.9235C4.81253 10.9235 5.03128 10.801 5.3454 10.486C5.57815 10.2541 5.75665 10.0485 5.92028 9.912Z" fill="#F3F0E6"/>
</g>
<defs>
<clipPath id="clip0_0_21">
<rect width="14" height="14" fill="white"/>
</clipPath>
</defs>
</svg>
